<svg id="Expanded" xmlns="http://www.w3.org/2000/svg" viewBox="0 0 96 96"><path d="M72,83H24a6.75,6.75,0,0,1,0-13.49H72A6.75,6.75,0,0,1,72,83ZM24,71.48A4.75,4.75,0,0,0,24,81H72a4.75,4.75,0,0,0,0-9.49Z"/><path d="M30.23,94a1,1,0,0,1-1-1V82a1,1,0,0,1,2,0V93A1,1,0,0,1,30.23,94Z"/><path d="M65.77,94a1,1,0,0,1-1-1V82a1,1,0,0,1,2,0V93A1,1,0,0,1,65.77,94Z"/><path d="M74.36,94H21.64a1,1,0,0,1,0-2H74.36a1,1,0,1,1,0,2Z"/><path d="M17.53,13.64h-8a1,1,0,0,1-1-1V5.5a1,1,0,0,1,1-1h8a1,1,0,0,1,.89.55,1,1,0,0,1-.08,1,5,5,0,0,0,0,6,1,1,0,0,1-.8,1.59Zm-7-2h5.33a7.19,7.19,0,0,1-.48-2.57,7,7,0,0,1,.49-2.57H10.51Z"/><path d="M68.67,13.64H27.33a1,1,0,0,1-.8-1.6,4.89,4.89,0,0,0,1-3,5,5,0,0,0-1-3,1,1,0,0,1-.09-1,1,1,0,0,1,.89-.55H68.67a1,1,0,0,1,.89.55,1,1,0,0,1-.09,1,5,5,0,0,0-1,3,4.89,4.89,0,0,0,1,3,1,1,0,0,1-.8,1.6ZM29,11.64H67A7.12,7.12,0,0,1,67,6.5H29a7.12,7.12,0,0,1,0,5.14Z"/><path d="M86.49,13.64h-8a1,1,0,0,1-.8-1.59,5,5,0,0,0,0-6,1,1,0,0,1-.08-1,1,1,0,0,1,.89-.55h8a1,1,0,0,1,1,1v7.14A1,1,0,0,1,86.49,13.64Zm-6.33-2h5.33V6.5H80.15a7,7,0,0,1,.49,2.57A7.19,7.19,0,0,1,80.16,11.64Z"/><path d="M73.57,16.14a7,7,0,0,1-5.71-2.92A6.84,6.84,0,0,1,66.5,9.07a6.87,6.87,0,0,1,1.37-4.16A7,7,0,0,1,73.57,2a7.1,7.1,0,0,1,5.71,2.91,7,7,0,0,1,1.36,4.16,6.92,6.92,0,0,1-1.37,4.16A7,7,0,0,1,73.57,16.14ZM73.57,4A5.08,5.08,0,0,0,68.5,9.07a4.89,4.89,0,0,0,1,3,5,5,0,0,0,4.1,2.1,5.09,5.09,0,0,0,5.07-5.07A5.09,5.09,0,0,0,73.57,4Z"/><path d="M22.43,16.14a7,7,0,0,1-5.71-2.92,6.92,6.92,0,0,1-1.36-4.15,7,7,0,0,1,1.36-4.16,7,7,0,0,1,11.42,0A6.88,6.88,0,0,1,29.5,9.07a6.88,6.88,0,0,1-1.37,4.17A7,7,0,0,1,22.43,16.14ZM22.43,4a5.07,5.07,0,1,0,4.09,8.06,5,5,0,0,0,0-6A5.06,5.06,0,0,0,22.43,4Z"/><path d="M73.57,31a1,1,0,0,1-1-1V15.14a1,1,0,0,1,2,0V30A1,1,0,0,1,73.57,31Z"/><path d="M73.57,37.64a4.3,4.3,0,1,1,4.3-4.3A4.31,4.31,0,0,1,73.57,37.64Zm0-6.6a2.3,2.3,0,1,0,2.3,2.3A2.3,2.3,0,0,0,73.57,31Z"/><path d="M79.64,47.37l-.23,0a1,1,0,0,1-.75-1.2L79.85,41l-5.28-2.74v8.07a1,1,0,0,1-2,0V36.64a1,1,0,0,1,.48-.85,1,1,0,0,1,1,0l7.43,3.85A1,1,0,0,1,82,40.72l-1.36,5.87A1,1,0,0,1,79.64,47.37Z"/><path d="M67.5,47.37a1,1,0,0,1-1-.78l-1.36-5.87a1,1,0,0,1,.51-1.11l7.43-3.85A1,1,0,1,1,74,37.53L67.29,41l1.18,5.11a1,1,0,0,1-.74,1.2Z"/><path d="M22.58,31a1,1,0,0,1-1-1V15.14a1,1,0,0,1,2,0V30A1,1,0,0,1,22.58,31Z"/><path d="M22.58,37.64a4.3,4.3,0,1,1,4.3-4.3A4.31,4.31,0,0,1,22.58,37.64Zm0-6.6a2.3,2.3,0,1,0,2.3,2.3A2.3,2.3,0,0,0,22.58,31Z"/><path d="M16.51,47.37a1,1,0,0,1-1-.78l-1.36-5.87a1,1,0,0,1,.51-1.11l7.43-3.85a1,1,0,0,1,1.46.88v9.72a1,1,0,0,1-2,0V38.29L16.3,41l1.18,5.11a1,1,0,0,1-.74,1.2Z"/><path d="M28.65,47.37l-.23,0a1,1,0,0,1-.75-1.2L28.86,41l-6.74-3.5A1,1,0,1,1,23,35.76l7.43,3.85A1,1,0,0,1,31,40.72l-1.36,5.87A1,1,0,0,1,28.65,47.37Z"/><path d="M60.55,71.48H35.45a1,1,0,0,1-1-1V48a1,1,0,0,1,1-1h25.1a1,1,0,0,1,1,1V70.48A1,1,0,0,1,60.55,71.48Zm-24.1-2h23.1V49H36.45Z"/><path d="M51.89,56.78a1,1,0,0,1-.53-.15L48,54.54l-3.36,2.09a1,1,0,0,1-1.53-.85V48a1,1,0,0,1,1-1h7.78a1,1,0,0,1,1,1v7.78a1,1,0,0,1-.51.87A1,1,0,0,1,51.89,56.78ZM48,52.36a1,1,0,0,1,.53.15L50.89,54V49H45.11v5l2.36-1.47A1,1,0,0,1,48,52.36Z"/><path d="M27.38,77.22H25.13a1,1,0,1,1,0-2h2.25a1,1,0,0,1,0,2Z"/><path d="M34.63,77.22H32.38a1,1,0,1,1,0-2h2.25a1,1,0,0,1,0,2Z"/><path d="M41.88,77.22H39.63a1,1,0,1,1,0-2h2.25a1,1,0,0,1,0,2Z"/><path d="M49.13,77.22H46.88a1,1,0,1,1,0-2h2.25a1,1,0,0,1,0,2Z"/><path d="M56.38,77.22H54.13a1,1,0,1,1,0-2h2.25a1,1,0,0,1,0,2Z"/><path d="M63.63,77.22H61.38a1,1,0,1,1,0-2h2.25a1,1,0,0,1,0,2Z"/><path d="M70.88,77.22H68.63a1,1,0,0,1,0-2h2.25a1,1,0,0,1,0,2Z"/></svg>