<?xml version="1.0" encoding="utf-8"?>
<!-- Generator: Adobe Illustrator 16.0.0, SVG Export Plug-In . SVG Version: 6.00 Build 0)  -->
<!DOCTYPE svg PUBLIC "-//W3C//DTD SVG 1.1 Tiny//EN" "http://www.w3.org/Graphics/SVG/1.1/DTD/svg11-tiny.dtd">
<svg version="1.1" baseProfile="tiny" id="Layer_1" xmlns="http://www.w3.org/2000/svg" xmlns:xlink="http://www.w3.org/1999/xlink"
	 x="0px" y="0px" width="24px" height="24px" viewBox="0 0 24 24" xml:space="preserve">
<g>
	<path d="M6.15,12.657c0.611-0.269,0.74-0.425,0.912-1.11c0.149-0.584,0.082-0.82-0.374-1.325l-1.02-1.137
		c-0.234-0.262-0.455-0.51-0.766-0.51c-0.375,0-0.579,0.336-0.793,0.689c-0.585,0.955-0.831,2.051-0.712,3.173
		c0.052,0.461,0.116,1.034,0.692,1.034c0.191,0,0.391-0.073,0.741-0.228L6.15,12.657z M4.229,12.629
		c-0.016-0.097-0.028-0.215-0.036-0.278c-0.1-0.942,0.107-1.865,0.6-2.67C4.848,9.592,4.894,9.52,4.931,9.464
		C4.985,9.521,5.042,9.585,5.073,9.62l1.021,1.136c0.269,0.298,0.269,0.298,0.193,0.595c-0.105,0.419-0.105,0.419-0.46,0.574
		l-1.319,0.588C4.454,12.536,4.331,12.591,4.229,12.629z"/>
	<path d="M6.942,9.967c0.302,0.331,0.537,0.547,1.037,0.547c0.089,0,0.191-0.006,0.313-0.018c0.621-0.062,0.807-0.191,1.169-0.82
		c0.255-0.434,0.509-0.87,0.758-1.306c0.171-0.294,0.348-0.599,0.219-0.905C10.309,7.159,9.961,7.07,9.683,6.999
		c-1.108-0.285-2.329-0.177-3.38,0.304C5.917,7.48,5.584,7.635,5.515,7.974C5.447,8.3,5.669,8.547,5.929,8.834
		C6.271,9.208,6.604,9.582,6.942,9.967z M6.638,8.029c0.881-0.402,1.909-0.495,2.847-0.255C9.537,7.788,9.581,7.8,9.616,7.81
		c-0.024,0.045-0.054,0.099-0.09,0.16C9.276,8.405,9.024,8.84,8.77,9.273C8.543,9.667,8.543,9.667,8.215,9.699
		C8.123,9.708,8.047,9.714,7.979,9.714c-0.146,0-0.185,0-0.441-0.28C7.201,9.051,6.864,8.673,6.521,8.297
		c-0.03-0.034-0.083-0.093-0.13-0.148C6.481,8.102,6.589,8.052,6.638,8.029z"/>
	<path d="M7.681,11.059c-0.455,0.409-0.494,1.114-0.086,1.569c0.213,0.238,0.517,0.374,0.835,0.374c0.273,0,0.536-0.101,0.735-0.282
		c0.223-0.199,0.354-0.473,0.37-0.769c0.016-0.295-0.086-0.58-0.283-0.799C8.859,10.711,8.13,10.661,7.681,11.059z M8.736,11.908
		c-0.005,0.083-0.042,0.159-0.107,0.218c-0.188,0.172-0.341,0.077-0.438-0.031c-0.114-0.128-0.103-0.326,0.021-0.438
		c0.058-0.051,0.131-0.078,0.207-0.078c0.091,0,0.175,0.038,0.237,0.107C8.712,11.748,8.74,11.827,8.736,11.908z"/>
	<path d="M22.594,14.615c-0.061-0.022-0.21-0.085-0.229-0.077c-0.011-0.03-0.021-0.141-0.025-0.181
		c-0.009-0.084-0.011-0.138-0.019-0.138c0.021-0.026,0.095-0.085,0.229-0.176c0.576-0.405,0.809-0.666,0.454-1.308
		c-0.1-0.178-0.266-0.476-0.644-0.476c-0.191,0-0.388,0.078-0.689,0.208c-0.05,0.021-0.202,0.088-0.2,0.101
		c-0.019-0.009-0.065-0.044-0.135-0.101c-0.028-0.023-0.114-0.096-0.122-0.096c-0.008-0.052,0.028-0.249,0.043-0.332
		c0.107-0.591,0.123-0.993-0.61-1.198c-0.115-0.032-0.228-0.063-0.347-0.063c-0.459,0-0.621,0.408-0.779,0.806
		c-0.021,0.053-0.083,0.215-0.072,0.223c-0.029,0.011-0.14,0.022-0.184,0.026c-0.055,0.005-0.1,0.009-0.132,0.021
		c-0.04-0.03-0.15-0.189-0.191-0.248c-0.229-0.33-0.426-0.615-0.783-0.615c-0.18,0-0.332,0.077-0.497,0.169
		c-0.662,0.366-0.545,0.731-0.3,1.296c0.03,0.07,0.102,0.236,0.112,0.245c-0.013,0.028-0.085,0.117-0.109,0.147
		c-0.021,0.025-0.084,0.104-0.096,0.109c-0.073,0-0.167-0.017-0.297-0.04c-0.219-0.041-0.376-0.062-0.491-0.062
		c-0.54,0-0.656,0.416-0.718,0.637c-0.205,0.722,0.135,0.916,0.721,1.15c0.062,0.024,0.223,0.097,0.236,0.076
		c0.009,0.027,0.018,0.128,0.021,0.164c0.004,0.039,0.015,0.158,0.023,0.159c-0.029,0.036-0.179,0.14-0.255,0.191
		c-0.512,0.36-0.808,0.613-0.447,1.257C16.181,16.707,16.343,17,16.723,17c0.176,0,0.348-0.061,0.67-0.199
		c0.142-0.062,0.229-0.095,0.221-0.105c0.018,0.009,0.063,0.042,0.135,0.103c0.087,0.071,0.118,0.117,0.119,0.091
		c0.008,0.049-0.025,0.236-0.038,0.306c-0.124,0.682-0.106,1.023,0.59,1.22c0.123,0.035,0.244,0.066,0.367,0.066
		c0.453,0,0.604-0.384,0.764-0.788c0.025-0.063,0.093-0.231,0.077-0.237c0.028-0.009,0.131-0.018,0.183-0.022
		c0.065-0.007,0.118-0.012,0.142-0.029c0.034,0.027,0.127,0.162,0.184,0.243c0.221,0.318,0.43,0.619,0.796,0.619
		c0.182,0,0.337-0.077,0.493-0.164c0.658-0.368,0.535-0.746,0.279-1.334c-0.069-0.157-0.088-0.23-0.1-0.206
		c0.015-0.029,0.084-0.111,0.111-0.145c0.021-0.025,0.085-0.105,0.098-0.11c0.074,0,0.171,0.017,0.308,0.041
		c0.209,0.037,0.36,0.058,0.474,0.058c0.546,0,0.666-0.425,0.731-0.654C23.523,15.039,23.182,14.847,22.594,14.615z M22.555,15.534
		c-0.008,0.027-0.015,0.05-0.021,0.068c-0.071-0.006-0.159-0.021-0.272-0.042c-0.2-0.036-0.341-0.054-0.449-0.054
		c-0.391,0-0.566,0.217-0.716,0.402c-0.343,0.41-0.366,0.63-0.127,1.178c0.029,0.066,0.085,0.195,0.117,0.285
		c-0.015,0.009-0.032,0.019-0.053,0.03c-0.024,0.014-0.045,0.024-0.062,0.033c-0.063-0.075-0.147-0.197-0.181-0.245
		c-0.266-0.384-0.393-0.624-1.058-0.554c-0.565,0.048-0.706,0.204-0.928,0.761c-0.024,0.062-0.071,0.181-0.11,0.264
		c-0.018-0.005-0.037-0.011-0.059-0.017c-0.014-0.004-0.04-0.012-0.067-0.02c0.011-0.096,0.036-0.232,0.046-0.289
		c0.104-0.584,0.069-0.808-0.36-1.156c-0.148-0.123-0.333-0.276-0.606-0.276c-0.186,0-0.363,0.071-0.574,0.163
		c-0.053,0.023-0.184,0.079-0.273,0.11c-0.016-0.027-0.031-0.056-0.042-0.073c-0.009-0.016-0.017-0.03-0.022-0.042
		c0.073-0.059,0.181-0.135,0.229-0.168c0.505-0.347,0.625-0.511,0.571-1.079c-0.048-0.551-0.214-0.697-0.758-0.912
		c-0.058-0.023-0.184-0.074-0.268-0.114c0.006-0.021,0.013-0.046,0.021-0.076c0.005-0.02,0.01-0.035,0.014-0.05
		c0.072,0.007,0.163,0.023,0.28,0.045c0.195,0.035,0.334,0.054,0.441,0.054c0.39,0,0.572-0.227,0.718-0.407
		c0.36-0.444,0.347-0.657,0.11-1.212c-0.031-0.07-0.075-0.172-0.104-0.248c0.016-0.009,0.034-0.02,0.057-0.031
		c0.023-0.014,0.045-0.025,0.063-0.035c0.059,0.073,0.136,0.186,0.172,0.237c0.216,0.311,0.403,0.58,0.842,0.58
		c0.06,0,0.129-0.005,0.217-0.014c0.546-0.056,0.701-0.183,0.923-0.753c0.021-0.054,0.074-0.188,0.118-0.277
		c0.013,0.003,0.028,0.008,0.045,0.013c0.034,0.009,0.061,0.017,0.082,0.023c-0.01,0.087-0.032,0.211-0.041,0.261
		c-0.109,0.607-0.078,0.823,0.355,1.188c0.15,0.123,0.338,0.276,0.605,0.276c0.179,0,0.345-0.065,0.558-0.158
		c0.068-0.029,0.202-0.087,0.293-0.119c0.007,0.012,0.015,0.025,0.023,0.041c0.016,0.029,0.029,0.054,0.04,0.074
		c-0.077,0.065-0.204,0.154-0.251,0.188c-0.467,0.318-0.604,0.505-0.552,1.049c0.058,0.568,0.223,0.715,0.76,0.925
		c0.121,0.048,0.211,0.086,0.269,0.114C22.566,15.491,22.562,15.511,22.555,15.534z"/>
	<path d="M14.788,14.23c-0.355-0.256-0.377-0.271-0.237-0.855c0.141-0.58,0.141-0.58,0.682-0.659
		c0.859-0.13,1.258-0.292,1.202-1.204c-0.039-0.89-0.438-1.054-1.378-1.104c-0.478-0.025-0.478-0.025-0.695-0.631
		c-0.191-0.546-0.191-0.546,0.188-0.879c0.647-0.576,0.893-0.932,0.34-1.694c-0.162-0.225-0.383-0.533-0.784-0.533
		c-0.25,0-0.492,0.114-0.912,0.355c-0.1,0.059-0.334,0.196-0.426,0.196c-0.085,0-0.308-0.177-0.428-0.271
		c-0.561-0.444-0.561-0.444-0.462-0.807c0.256-0.913,0.276-1.349-0.593-1.679c-0.204-0.081-0.389-0.147-0.576-0.147
		c-0.498,0-0.719,0.437-1,0.991C9.555,5.614,9.555,5.614,9.272,5.614c-0.107,0-0.234-0.005-0.388-0.014
		C8.278,5.567,8.278,5.567,8.132,5.105C7.979,4.616,7.806,4.062,7.175,4.062c-0.134,0-0.276,0.025-0.405,0.052
		C5.832,4.324,5.78,4.691,5.876,5.614c0.053,0.474,0.053,0.474-0.365,0.685c-0.094,0.047-0.313,0.157-0.39,0.157
		c-0.062,0-0.274-0.194-0.344-0.259c-0.368-0.338-0.635-0.56-0.97-0.56c-0.298,0-0.522,0.179-0.765,0.396
		C2.364,6.64,2.524,7.021,3.055,7.746c0.271,0.368,0.271,0.368-0.063,0.938C2.712,9.153,2.663,9.155,2.558,9.155H2.557
		c-0.095,0-0.207-0.017-0.353-0.041C1.937,9.07,1.739,9.046,1.591,9.046c-0.661,0-0.794,0.488-0.892,0.848
		c-0.244,0.918,0.071,1.133,0.966,1.472c0.421,0.16,0.421,0.16,0.452,0.812c0.026,0.585,0.026,0.585-0.366,0.762
		c-0.896,0.384-1.206,0.613-0.919,1.518c0.11,0.338,0.263,0.8,0.886,0.8c0.196,0,0.436-0.043,0.755-0.111
		c0.119-0.025,0.252-0.051,0.34-0.051c0.084,0,0.14,0,0.465,0.454c0.345,0.482,0.345,0.482,0.069,0.904
		C2.846,17.208,2.7,17.601,3.418,18.19c0.235,0.191,0.453,0.35,0.73,0.35c0.353,0,0.61-0.242,1.003-0.638
		c0.233-0.236,0.336-0.315,0.403-0.315c0.102,0,0.313,0.082,0.505,0.161c0.563,0.227,0.563,0.227,0.555,0.774
		c-0.005,0.899,0.095,1.305,1.069,1.398c0.103,0.011,0.191,0.018,0.27,0.018c0.721,0,0.842-0.585,0.971-1.203
		c0.113-0.536,0.113-0.536,0.705-0.651c0.184-0.035,0.322-0.059,0.437-0.059c0.111,0,0.153,0,0.389,0.374
		c0.296,0.463,0.552,0.862,1.023,0.862c0.202,0,0.393-0.076,0.629-0.196c0.82-0.408,0.751-0.868,0.413-1.753
		c-0.174-0.444-0.174-0.444,0.252-0.853c0.229-0.217,0.377-0.342,0.458-0.342c0.094,0,0.283,0.082,0.458,0.162
		c0.402,0.183,0.649,0.276,0.879,0.276c0.459,0,0.676-0.373,0.834-0.645C15.86,15.122,15.582,14.809,14.788,14.23z M14.709,15.51
		c-0.087,0.149-0.146,0.236-0.143,0.247c-0.099,0-0.413-0.144-0.546-0.204c-0.854-0.393-1.222-0.219-1.8,0.327
		c-0.67,0.642-0.75,0.947-0.448,1.721c0.137,0.355,0.199,0.57,0.197,0.616c-0.01,0.012-0.05,0.048-0.223,0.134
		c-0.187,0.095-0.249,0.11-0.245,0.117c-0.083-0.045-0.302-0.388-0.373-0.497c-0.266-0.422-0.513-0.745-1.063-0.745
		c-0.152,0-0.341,0.025-0.588,0.073c-0.915,0.178-1.152,0.404-1.337,1.272c-0.026,0.127-0.106,0.513-0.129,0.563
		c-0.002,0.001-0.115,0.005-0.247-0.01c-0.204-0.02-0.287-0.039-0.309-0.039c-0.004,0-0.006,0.001-0.006,0.003
		c-0.038-0.076-0.036-0.429-0.035-0.559c0.013-0.92-0.155-1.162-1.055-1.523c-0.977-0.401-1.271-0.177-1.777,0.332
		c-0.111,0.112-0.372,0.375-0.415,0.403c-0.024-0.007-0.086-0.043-0.244-0.171c-0.174-0.144-0.197-0.176-0.197-0.167
		c0.008-0.091,0.218-0.406,0.288-0.513c0.479-0.732,0.464-1.036-0.086-1.81c-0.443-0.616-0.772-0.9-1.622-0.72
		c-0.217,0.046-0.456,0.094-0.608,0.111c-0.031-0.038-0.086-0.205-0.105-0.264c-0.019-0.061-0.077-0.244-0.093-0.25
		c0.061-0.069,0.415-0.221,0.572-0.288c0.784-0.353,0.885-0.644,0.844-1.533c-0.045-0.938-0.164-1.216-0.968-1.521
		c-0.147-0.056-0.493-0.187-0.536-0.213c-0.004-0.036,0.016-0.139,0.06-0.304c0.043-0.156,0.075-0.25,0.119-0.255
		c0.118,0,0.273,0.023,0.483,0.058c0.196,0.033,0.353,0.052,0.482,0.052c0.565,0,0.812-0.341,1.123-0.863
		c0.513-0.875,0.516-1.147,0.02-1.818c-0.072-0.1-0.293-0.401-0.314-0.448c0.01-0.021,0.052-0.071,0.191-0.196
		c0.163-0.145,0.227-0.186,0.218-0.192C3.88,6.46,4.148,6.706,4.236,6.787c0.29,0.266,0.54,0.469,0.885,0.469
		c0.247,0,0.485-0.109,0.75-0.242c0.752-0.381,0.895-0.645,0.8-1.485C6.656,5.382,6.62,5.04,6.628,4.989
		c0.021-0.016,0.095-0.045,0.31-0.094c0.071-0.015,0.174-0.034,0.231-0.048c0.029,0.028,0.087,0.138,0.2,0.498
		c0.276,0.873,0.546,1.003,1.472,1.054c0.171,0.01,0.313,0.015,0.432,0.015c0.669,0,0.888-0.22,1.149-0.745
		c0.084-0.165,0.259-0.51,0.286-0.551c0.052,0.001,0.225,0.069,0.287,0.094c0.194,0.073,0.244,0.101,0.238,0.092
		c0.022,0.095-0.09,0.494-0.127,0.628c-0.21,0.765-0.032,1.038,0.735,1.646c0.582,0.462,0.983,0.593,1.753,0.14
		c0.104-0.06,0.421-0.242,0.47-0.258c0.02,0.012,0.065,0.059,0.175,0.212c0.125,0.172,0.15,0.234,0.157,0.234
		c0,0,0.001,0,0.001-0.001c-0.02,0.056-0.147,0.188-0.379,0.395c-0.685,0.603-0.703,0.913-0.411,1.745
		c0.313,0.873,0.523,1.116,1.407,1.162c0.429,0.022,0.563,0.058,0.587,0.067c0.007,0.014,0.025,0.068,0.034,0.279
		c0.012,0.187,0.003,0.251,0.014,0.252c-0.076,0.05-0.41,0.1-0.534,0.119c-0.934,0.136-1.135,0.405-1.342,1.264
		c-0.211,0.878-0.099,1.226,0.545,1.689c0.129,0.094,0.471,0.343,0.509,0.393C14.823,15.293,14.801,15.353,14.709,15.51z"/>
	<path d="M8.468,14.323c-0.073-0.699-0.178-0.862-0.791-1.242c-0.488-0.313-0.768-0.362-1.394-0.09L4.99,13.568
		c-0.404,0.178-0.754,0.331-0.831,0.684c-0.077,0.356,0.178,0.643,0.501,1.006c0.73,0.82,1.718,1.385,2.777,1.587
		c0.222,0.046,0.392,0.071,0.518,0.071c0.217,0,0.388-0.068,0.509-0.203c0.208-0.23,0.192-0.556,0.139-1.075
		C8.56,15.198,8.517,14.763,8.468,14.323z M7.593,16.061C6.7,15.89,5.871,15.416,5.258,14.727c-0.054-0.061-0.167-0.188-0.244-0.287
		c0.101-0.052,0.235-0.111,0.301-0.14l1.292-0.577c0.109-0.047,0.292-0.127,0.348-0.127c0.043,0,0.218,0.111,0.297,0.162
		c0.378,0.234,0.378,0.234,0.422,0.651c0.048,0.438,0.091,0.87,0.143,1.396c0.014,0.139,0.021,0.234,0.022,0.301
		C7.771,16.096,7.689,16.08,7.593,16.061z"/>
	<path d="M12.06,12.833c-0.439-0.092-0.873-0.182-1.312-0.278c-0.714-0.155-0.951-0.008-1.393,0.382
		c-0.53,0.478-0.6,0.652-0.53,1.34l0.146,1.414c0.039,0.396,0.104,1.061,0.723,1.061c0.206,0,0.42-0.079,0.793-0.246
		c1.005-0.449,1.851-1.232,2.383-2.207c0.155-0.29,0.332-0.618,0.185-0.939C12.911,13.044,12.569,12.946,12.06,12.833z
		 M12.166,13.917c-0.447,0.819-1.159,1.479-2.005,1.857c-0.068,0.03-0.233,0.104-0.353,0.146c-0.012-0.065-0.026-0.163-0.041-0.313
		l-0.146-1.415c-0.039-0.384-0.039-0.384,0.267-0.659c0.254-0.224,0.302-0.256,0.348-0.256c0.068,0,0.196,0.026,0.343,0.058
		c0.438,0.097,0.876,0.188,1.313,0.279c0.169,0.037,0.295,0.069,0.379,0.097C12.248,13.76,12.216,13.826,12.166,13.917z"/>
	<path d="M12.187,8.521c-0.346-0.387-0.578-0.622-0.894-0.622c-0.384,0-0.583,0.344-0.777,0.679l-0.76,1.317
		c-0.354,0.603-0.363,0.795-0.073,1.376c0.329,0.657,0.485,0.787,1.118,0.924l1.424,0.303c0.253,0.056,0.429,0.087,0.58,0.087
		c0.212,0,0.379-0.066,0.499-0.198c0.202-0.222,0.189-0.532,0.15-0.941C13.362,10.351,12.923,9.339,12.187,8.521z M12.393,11.716
		l-1.425-0.303c-0.359-0.078-0.359-0.078-0.569-0.499c-0.046-0.09-0.121-0.241-0.123-0.279c0.004-0.051,0.125-0.258,0.171-0.336
		l0.762-1.32c0.023-0.04,0.074-0.127,0.121-0.201C11.424,8.869,11.541,9,11.591,9.056c0.62,0.688,0.989,1.537,1.066,2.461
		c0.011,0.112,0.017,0.195,0.019,0.255C12.578,11.756,12.462,11.731,12.393,11.716z"/>
</g>
</svg>
