<?xml version="1.0" encoding="utf-8"?>
<!-- Generator: Adobe Illustrator 28.0.0, SVG Export Plug-In . SVG Version: 6.00 Build 0)  -->
<svg version="1.1" id="Layer_1" xmlns="http://www.w3.org/2000/svg" xmlns:xlink="http://www.w3.org/1999/xlink" x="0px" y="0px"
	 viewBox="0 0 64 64" style="enable-background:new 0 0 64 64;" xml:space="preserve">
<style type="text/css">
	.st0{fill:none;stroke:#000000;stroke-width:2;stroke-linecap:round;stroke-linejoin:round;stroke-miterlimit:10;}
</style>
<line class="st0" x1="18" y1="32" x2="22" y2="32"/>
<line class="st0" x1="42" y1="32" x2="46" y2="32"/>
<polyline class="st0" points="23.9,39.1 20,43 20,46 "/>
<line class="st0" x1="44.9" y1="45" x2="39" y2="39"/>
<line class="st0" x1="39.1" y1="25" x2="46.9" y2="17.2"/>
<line class="st0" x1="21" y1="21" x2="25" y2="25"/>
<line class="st0" x1="32" y1="18" x2="32" y2="21.8"/>
<path class="st0" d="M35,36.7h-6c-0.6,0-1-0.5-1-1v-4.3c0-0.6,0.5-1,1-1h6c0.6,0,1,0.5,1,1v4.3C36,36.2,35.5,36.7,35,36.7z"/>
<path class="st0" d="M34.4,30.3h-4.8v-1.6c0-1.3,1.1-2.4,2.4-2.4l0,0c1.3,0,2.4,1.1,2.4,2.4C34.4,28.7,34.4,30.3,34.4,30.3z"/>
<path class="st0" d="M32,42c-5.5,0-10-4.5-10-10s4.5-10,10-10s10,4.5,10,10c0,4.1-2.5,7.6-6,9.2"/>
<path class="st0" d="M21,18c0,0.8-0.3,1.6-0.9,2.1C19.6,20.7,18.8,21,18,21c-1.7,0-3-1.3-3-3s1.3-3,3-3S21,16.3,21,18z"/>
<path class="st0" d="M18,32c0,0.8-0.3,1.6-0.9,2.1C16.6,34.7,15.8,35,15,35c-1.7,0-3-1.3-3-3s1.3-3,3-3S18,30.3,18,32z"/>
<path class="st0" d="M52,32c0,0.8-0.3,1.6-0.9,2.1C50.6,34.7,49.8,35,49,35c-1.7,0-3-1.3-3-3s1.3-3,3-3S52,30.3,52,32z"/>
<path class="st0" d="M35,15c0,0.8-0.3,1.6-0.9,2.1C33.6,17.7,32.8,18,32,18c-1.7,0-3-1.3-3-3s1.3-3,3-3S35,13.3,35,15z"/>
<path class="st0" d="M50,47c0,0.8-0.3,1.6-0.9,2.1C48.6,49.7,47.8,50,47,50c-1.7,0-3-1.3-3-3s1.3-3,3-3S50,45.3,50,47z"/>
<path class="st0" d="M23,49c0,0.8-0.3,1.6-0.9,2.1C21.6,51.7,20.8,52,20,52c-1.7,0-3-1.3-3-3s1.3-3,3-3S23,47.3,23,49z"/>
<path class="st0" d="M52,15c0,0.8-0.3,1.6-0.9,2.1C50.6,17.7,49.8,18,49,18c-1.7,0-3-1.3-3-3s1.3-3,3-3S52,13.3,52,15z"/>
</svg>
