<?xml version="1.0" encoding="utf-8"?>
<!-- Generator: Adobe Illustrator 28.0.0, SVG Export Plug-In . SVG Version: 6.00 Build 0)  -->
<svg version="1.1" id="Layer_1" xmlns="http://www.w3.org/2000/svg" xmlns:xlink="http://www.w3.org/1999/xlink" x="0px" y="0px"
	 viewBox="0 0 64 64" style="enable-background:new 0 0 64 64;" xml:space="preserve">
<g>
	<path d="M2.47,6.53C2.7,6.52,2.93,6.5,3.16,6.5c19.2,0,38.41,0,57.61,0c0.23,0,0.46,0,0.76,0c0,0.24,0,0.45,0,0.65
		c0,12.69,0,25.37,0,38.06c0,1.76-1.07,2.83-2.83,2.84c-7.5,0-14.99,0-22.49,0c-0.23,0-0.45,0-0.67,0
		c-0.44,2.33,1.16,4.28,3.48,4.29c1.63,0.01,3.27,0,4.9,0c1.68,0,2.78,1.09,2.81,2.76c0.01,0.78,0,1.57,0,2.4c-1.75,0-3.45,0-5.19,0
		c0-0.54,0-1.09,0-1.69c1.12,0,2.23,0,3.32,0c0.3-1.3-0.03-1.72-1.29-1.72c-7.77,0-15.53,0-23.3,0c-0.99,0-1.23,0.25-1.22,1.23
		c0,0.13,0.01,0.27,0.03,0.45c6.88,0,13.76,0,20.68,0c0,0.6,0,1.14,0,1.73c-7.47,0-14.93,0-22.56,0c0.08-1.14,0.04-2.3,0.27-3.4
		c0.22-1.09,1.29-1.75,2.43-1.76c1.58-0.01,3.16-0.08,4.73,0.01c2.32,0.13,4.19-1.6,3.88-4.31c-0.21,0-0.43,0-0.65,0
		c-7.38,0-14.76-0.02-22.14,0.02c-1.6,0.01-2.71-0.53-3.24-2.08c0-8.54,0-17.07,0-25.61c0.55,0,1.11,0,1.71,0
		c0,7.47,0,14.92,0,22.41c18.55,0,37.05,0,55.59,0c0-9.19,0-18.36,0-27.58c-18.5,0-37,0-55.55,0c0,1.12,0,2.22,0,3.43
		c-0.61,0-1.18,0-1.75,0C2.47,14.6,2.47,10.57,2.47,6.53z M4.22,13.37c18.56,0,37.06,0,55.55,0c0-1.73,0-3.41,0-5.08
		c-18.54,0-37.03,0-55.55,0C4.22,10,4.22,11.67,4.22,13.37z M4.25,44.62c-0.18,1.37,0.09,1.68,1.39,1.68c17.57,0,35.14,0,52.71,0
		c0.21,0,0.42,0.01,0.63-0.02c0.49-0.06,0.75-0.36,0.8-0.84c0.03-0.26,0-0.53,0-0.82C41.27,44.62,22.78,44.62,4.25,44.62z M29,52.31
		c2.04,0,3.96,0,6,0c-1.07-1.27-1.38-2.69-1.27-4.22c-1.2,0-2.32,0-3.49,0C30.4,49.65,30.05,51.03,29,52.31z"/>
	<path d="M29.48,16.91c1.7,0,3.35,0,5.04,0c0.08,0.74,0.14,1.47,0.26,2.18c0.03,0.17,0.2,0.36,0.36,0.47
		c0.18,0.13,0.46,0.12,0.63,0.26c0.77,0.57,1.37,0.35,1.97-0.29c0.3-0.32,0.68-0.56,1.01-0.83c1.17,1.19,2.32,2.36,3.54,3.6
		c-0.36,0.44-0.75,0.98-1.2,1.47c-0.28,0.31-0.4,0.59-0.12,0.95c0.06,0.07,0.11,0.17,0.12,0.26c0.15,1.24,1.01,1.43,2.04,1.42
		c0.32,0,0.64,0.07,0.97,0.1c0,1.69,0,3.34,0,5.03c-0.51,0.05-1,0.1-1.49,0.16c-0.29,0.03-0.58,0.04-0.86,0.11
		c-0.4,0.09-1.01,2.01-0.75,2.33c0.23,0.29,0.46,0.57,0.69,0.85c0.22,0.27,0.43,0.53,0.63,0.77c-1.19,1.19-2.36,2.35-3.57,3.57
		c-0.52-0.42-1.06-0.89-1.65-1.31c-0.16-0.11-0.43-0.12-0.64-0.08c-0.24,0.04-0.45,0.25-0.69,0.28c-0.93,0.12-1.09,0.76-1.11,1.53
		c-0.01,0.45-0.09,0.91-0.13,1.38c-1.69,0-3.33,0-5.02,0c-0.08-0.74-0.19-1.46-0.23-2.18c-0.02-0.31-0.14-0.44-0.41-0.52
		c-0.29-0.09-0.61-0.16-0.85-0.33c-0.59-0.42-1.03-0.25-1.49,0.21c-0.38,0.38-0.82,0.69-1.19,0.99c-1.2-1.2-2.39-2.37-3.6-3.57
		c0.4-0.49,0.84-1.05,1.3-1.58c0.2-0.24,0.25-0.43,0.09-0.72c-0.16-0.28-0.34-0.58-0.39-0.89c-0.11-0.69-0.56-0.81-1.14-0.83
		c-0.54-0.02-1.07-0.09-1.65-0.15c0-1.67,0-3.33,0-5.05c0.67-0.07,1.35-0.17,2.04-0.2c0.37-0.02,0.56-0.14,0.64-0.5
		c0.06-0.26,0.14-0.54,0.29-0.74c0.47-0.63,0.25-1.1-0.24-1.58c-0.36-0.37-0.66-0.79-0.94-1.14c1.21-1.21,2.38-2.39,3.58-3.58
		c0.51,0.42,1.06,0.89,1.65,1.33c0.14,0.1,0.41,0.11,0.59,0.06c0.26-0.06,0.48-0.27,0.74-0.31c0.88-0.12,1.04-0.71,1.06-1.45
		C29.36,17.89,29.43,17.43,29.48,16.91z M37.1,22.28c-1.32-0.49-2.48-0.9-3.63-1.35c-0.14-0.05-0.28-0.24-0.31-0.38
		c-0.1-0.62-0.16-1.25-0.23-1.89c-0.63,0-1.22,0-1.85,0c-0.08,0.65-0.14,1.27-0.23,1.9c-0.02,0.14-0.14,0.32-0.26,0.37
		c-1.19,0.46-2.38,0.89-3.68,1.36c-0.42-0.34-0.99-0.8-1.52-1.23c-0.47,0.46-0.91,0.87-1.35,1.3c0.47,0.59,0.93,1.15,1.26,1.55
		c-0.49,1.31-0.92,2.49-1.37,3.66c-0.05,0.13-0.24,0.27-0.39,0.29c-0.62,0.09-1.25,0.15-1.87,0.21c0,0.66,0,1.26,0,1.86
		c0.63,0.06,1.23,0.1,1.82,0.2c0.16,0.03,0.38,0.17,0.44,0.32c0.46,1.17,0.89,2.35,1.37,3.64c-0.34,0.42-0.81,1-1.18,1.46
		c0.45,0.51,0.85,0.96,1.26,1.42c0.5-0.41,0.97-0.81,1.46-1.18c0.11-0.08,0.32-0.13,0.44-0.08c1.16,0.52,2.32,1.06,3.58,1.64
		c0.06,0.54,0.15,1.26,0.23,2c0.63,0,1.22,0,1.84,0c0.09-0.75,0.17-1.47,0.23-2c1.27-0.59,2.42-1.13,3.58-1.65
		c0.11-0.05,0.33,0,0.44,0.09c0.5,0.38,0.98,0.79,1.41,1.14c0.48-0.44,0.93-0.85,1.39-1.27c-0.48-0.59-0.93-1.16-1.27-1.57
		c0.48-1.27,0.9-2.44,1.36-3.58c0.07-0.16,0.29-0.34,0.46-0.37c0.6-0.1,1.21-0.13,1.83-0.19c0-0.64,0-1.23,0-1.87
		c-0.43-0.05-0.85-0.13-1.27-0.12c-0.75,0.02-1.04-0.3-1.23-1.04c-0.26-1-0.77-1.93-1.2-2.94c0.41-0.5,0.86-1.07,1.28-1.59
		c-0.45-0.47-0.86-0.89-1.3-1.35C38.08,21.49,37.51,21.94,37.1,22.28z"/>
	<path d="M49.18,21.27c0.94,0,1.71,0.37,2.19,1.16c1.25,2.09,2.46,4.2,3.66,6.32c0.07,0.13,0.05,0.38-0.02,0.51
		c-1.18,2.07-2.35,4.13-3.57,6.18c-0.76,1.28-2.3,1.66-3.55,0.93c-1.23-0.71-1.64-2.27-0.92-3.56c0.62-1.12,1.26-2.24,1.93-3.34
		c0.2-0.34,0.23-0.59,0.01-0.93c-0.68-1.11-1.33-2.24-1.96-3.39C45.98,23.38,47.2,21.29,49.18,21.27z M49.38,34.97
		c0.14-0.11,0.46-0.28,0.62-0.54c1.01-1.7,2-3.41,2.97-5.13c0.09-0.16,0.09-0.45,0-0.61c-0.96-1.7-1.94-3.4-2.93-5.09
		c-0.33-0.57-0.78-0.73-1.23-0.48c-0.48,0.27-0.57,0.75-0.23,1.34c0.68,1.2,1.33,2.42,2.09,3.58c0.45,0.68,0.46,1.2,0.01,1.89
		c-0.78,1.18-1.45,2.44-2.15,3.68C48.15,34.26,48.51,34.95,49.38,34.97z"/>
	<path d="M14.61,21.27c2.19,0.01,3.41,2.1,2.44,3.88c-0.62,1.15-1.28,2.27-1.96,3.39c-0.2,0.32-0.2,0.56,0,0.89
		c0.64,1.07,1.26,2.15,1.88,3.24c0.79,1.4,0.42,2.97-0.88,3.71c-1.3,0.75-2.82,0.29-3.64-1.12c-1.14-1.96-2.26-3.92-3.41-5.88
		c-0.16-0.28-0.18-0.49-0.01-0.78c1.17-1.99,2.31-3.99,3.46-5.98C13.02,21.75,13.79,21.29,14.61,21.27z M15.74,34.22
		c-0.15-0.33-0.23-0.57-0.35-0.78c-0.78-1.37-1.58-2.72-2.34-4.1c-0.1-0.18-0.1-0.52,0-0.71c0.77-1.39,1.58-2.76,2.37-4.15
		c0.35-0.61,0.28-1.07-0.19-1.35c-0.46-0.28-0.93-0.12-1.27,0.48c-0.96,1.66-1.91,3.33-2.88,4.98c-0.17,0.28-0.17,0.49,0,0.78
		c0.96,1.64,1.9,3.29,2.86,4.93c0.09,0.15,0.17,0.36,0.3,0.41c0.29,0.11,0.64,0.24,0.9,0.15C15.37,34.79,15.53,34.45,15.74,34.22z"
		/>
	<path d="M56.38,16.9c0.57,0,1.08,0,1.64,0c0,0.56,0,1.1,0,1.69c-0.52,0-1.07,0-1.64,0C56.38,18.04,56.38,17.5,56.38,16.9z"/>
	<path d="M58.05,20.37c0,0.58,0,1.11,0,1.68c-0.56,0-1.1,0-1.67,0c0-0.56,0-1.1,0-1.68C56.93,20.37,57.46,20.37,58.05,20.37z"/>
	<path d="M58.04,10.01c0,0.58,0,1.11,0,1.67c-3.15,0-6.28,0-9.46,0c0-0.54,0-1.08,0-1.67C51.72,10.01,54.86,10.01,58.04,10.01z"/>
	<path d="M10.28,9.98c0.59,0,1.12,0,1.69,0c0,0.56,0,1.11,0,1.69c-0.56,0-1.1,0-1.69,0C10.28,11.13,10.28,10.58,10.28,9.98z"/>
	<path d="M7.62,11.68c-0.56,0-1.09,0-1.65,0c0-0.57,0-1.11,0-1.69c0.55,0,1.08,0,1.65,0C7.62,10.53,7.62,11.08,7.62,11.68z"/>
	<path d="M16.28,11.69c-0.58,0-1.09,0-1.65,0c0-0.56,0-1.1,0-1.69c0.53,0,1.07,0,1.65,0C16.28,10.56,16.28,11.1,16.28,11.69z"/>
	<path d="M32,33.32c-2.38,0-4.33-1.93-4.35-4.3c-0.02-2.38,1.98-4.37,4.37-4.36c2.36,0.01,4.33,1.99,4.32,4.35
		C36.34,31.38,34.39,33.31,32,33.32z M34.57,29c0-1.44-1.16-2.61-2.59-2.6c-1.42,0.02-2.54,1.16-2.55,2.58
		c0,1.46,1.13,2.59,2.59,2.58C33.45,31.56,34.56,30.44,34.57,29z"/>
</g>
</svg>
