<?xml version="1.0" ?><svg height="36" id="svg6390" version="1.1" width="36" xmlns="http://www.w3.org/2000/svg" xmlns:cc="http://creativecommons.org/ns#" xmlns:dc="http://purl.org/dc/elements/1.1/" xmlns:inkscape="http://www.inkscape.org/namespaces/inkscape" xmlns:rdf="http://www.w3.org/1999/02/22-rdf-syntax-ns#" xmlns:sodipodi="http://sodipodi.sourceforge.net/DTD/sodipodi-0.dtd" xmlns:svg="http://www.w3.org/2000/svg"><defs id="defs6392"/><g id="layer1" transform="translate(0,-1016.3622)"><g id="g3" transform="translate(-7,1019.3622)"><path d="m 23.001,-6e-5 c -1.0994,0 -2,0.90065 -2,2 l 0,3 1,0 0,-3 c 0,-0.56265 0.4374,-1 1,-1 l 5,0 c 0.5626,0 1,0.43735 1,1 l 0,9.46679 c -4e-4,0.0117 -4e-4,0.0234 0,0.0352 l 0,7.99805 0,9.5 c 0,1.09935 0.9006,2 2,2 l 3,0 c 1.0994,0 2,-0.90065 2,-2 l 0,-16 -1,0 0,16 c 0,0.56265 -0.4374,1 -1,1 l -3,0 c -0.5626,0 -1,-0.43735 -1,-1 l 0,-9.46485 c 4e-4,-0.0117 4e-4,-0.0234 0,-0.0352 l 0,-7.99805 0,-9.50195 c 0,-1.09935 -0.9006,-2 -2,-2 l -5,0 z m 10.1426,2 c -0.06,0 -0.1426,0.0603 -0.1426,0.20898 l 0,2.79297 5,0 0,-2.79297 c 0,-0.14868 -0.084,-0.20898 -0.1426,-0.20898 l -0.8574,0 0,2.00195 -1,0 0,-2.00195 -1,0 0,2 -1,0 0,-2 -0.8574,0 z m -13.1426,4 0,1 3,0 0,-1 -3,0 z m 12,0.0293 0,3.97266 0.7539,0 0.914,0 1.8321,0 1.83,0 0.1309,0 0.7851,0 0.752,0 0,-3.97266 -7,0 z m -14,1.97071 0,2 7,0 0,-2 -7,0 z m -6.4375,3 c -0.3202,0 -0.5625,0.24222 -0.5625,0.5625 l 0,2.4375 16,0 0,-2.4375 c 0,-0.32028 -0.2423,-0.5625 -0.5625,-0.5625 l -14.875,0 z m 22.4375,0.002 0,1 3,0 0,-1 -1.498,0 -1.5,0 z M 22.501,12 c 0.2761,0 0.5,0.22386 0.5,0.5 0,0.27614 -0.2239,0.5 -0.5,0.5 -0.2761,0 -0.5,-0.22386 -0.5,-0.5 0,-0.27614 0.2239,-0.5 0.5,-0.5 z m 2,0 c 0.2761,0 0.5,0.22386 0.5,0.5 0,0.27614 -0.2239,0.5 -0.5,0.5 -0.2761,0 -0.5,-0.22386 -0.5,-0.5 0,-0.27614 0.2239,-0.5 0.5,-0.5 z m -13.5,3 0,15.4375 c 0,0.32026 0.2423,0.5625 0.5625,0.5625 l 14.875,0 c 0.3202,0 0.5625,-0.24224 0.5625,-0.5625 l 0,-15.4375 -16,0 z m 6,1 4,0 c 0.2761,3e-5 0.5,0.22387 0.5,0.5 l 0,1.5 1,0 c 0.2761,3e-5 0.5,0.22387 0.5,0.5 l 0,11 c 0,0.27613 -0.2239,0.49997 -0.5,0.5 l -7,0 c -0.2761,-3e-5 -0.5,-0.22387 -0.5,-0.5 l 0,-11 c 0,-0.27613 0.2239,-0.49997 0.5,-0.5 l 1,0 0,-1.5 c 0,-0.27613 0.2239,-0.49997 0.5,-0.5 z m 0.5,1 0,1 3,0 0,-1 -3,0 z m -1.5,2 0,10 6,0 0,-10 -6,0 z m 2.1348,1 2.1523,0 c 0.3204,-2.2e-4 0.5583,0.29672 0.4883,0.60937 l -0.457,2.05469 0.3613,0 c 0.3876,-6.1e-4 0.6282,0.42026 0.4316,0.75391 l -2.5468,4.33593 c -0.2769,0.46389 -0.9908,0.21993 -0.9258,-0.3164 L 17.9541,25 17.4893,25 c -0.3083,3.7e-4 -0.5432,-0.27571 -0.4942,-0.58008 l 0.6465,-3.99805 C 17.6806,20.17879 17.8897,19.99985 18.1358,20 z m 0.4238,1 -0.4824,3 0.4453,0 c 0.3018,-1.3e-4 0.5351,0.26514 0.4961,0.56445 l -0.074,0.57031 0.8632,-1.4707 -0.1132,0 c -0.3204,2.2e-4 -0.5583,-0.29672 -0.4883,-0.60937 L 19.6653,21 18.5598,21 z" id="rect6752" style="font-size:medium;font-style:normal;font-variant:normal;font-weight:normal;font-stretch:normal;text-indent:0;text-align:start;text-decoration:none;line-height:normal;letter-spacing:normal;word-spacing:normal;text-transform:none;direction:ltr;block-progression:tb;writing-mode:lr-tb;text-anchor:start;baseline-shift:baseline;color:#000000;fill:#000000;fill-opacity:1;fill-rule:evenodd;stroke:none;visibility:visible;display:inline;overflow:visible;enable-background:accumulate;font-family:sans-serif"/></g></g></svg>