<?xml version="1.0" encoding="utf-8"?>
<!-- Generator: Adobe Illustrator 28.0.0, SVG Export Plug-In . SVG Version: 6.00 Build 0)  -->
<svg version="1.1" id="Layer_1" xmlns="http://www.w3.org/2000/svg" xmlns:xlink="http://www.w3.org/1999/xlink" x="0px" y="0px"
	 viewBox="0 0 64 64" style="enable-background:new 0 0 64 64;" xml:space="preserve">
<path d="M32.57,38.37c-0.31,0-0.55,0-0.85,0c0-0.82,0-1.61,0-2.4c0-0.81,0.01-1.63,0-2.44c-0.01-0.68-0.22-0.94-0.88-0.94
	c-2.24-0.02-4.47-0.01-6.71,0c-0.58,0-0.86,0.31-0.86,0.91c0.02,1.61,0.01,3.21,0.01,4.8c-0.51,0.28-0.66-0.05-0.84-0.37
	c-2.16-3.85-1.74-8.83,1.05-12.29c1.56-1.93,3.56-3.19,5.95-3.82c0.21-0.06,0.44-0.09,0.73-0.14c0,0.63,0,1.19,0,1.75
	c0,1.14,0.03,1.17,1.18,1.38c0.01,0.19,0.02,0.39,0.03,0.46c-0.7,0.53-1.35,0.97-1.95,1.48c-0.18,0.15-0.28,0.46-0.32,0.71
	c-0.05,0.35-0.01,0.71-0.01,1.06c0.01,0.68,0.58,1.43,1.24,1.52c0.25,0.03,0.69-0.11,0.78-0.3C31.23,29.5,31.18,29,31,28.85
	c-0.36-0.32-0.59-0.7-0.38-1.07c0.25-0.43,0.65-0.8,1.26-0.76c0.51,0.03,1.02-0.06,1.46,0.37c0.46,0.45,0.52,0.89,0.04,1.35
	c-0.36,0.34-0.46,0.72-0.13,1.1c0.31,0.36,0.7,0.31,1.07,0.05c1.25-0.86,1.32-2.59,0.11-3.5c-0.47-0.36-0.97-0.68-1.55-1.08
	c0-0.06,0-0.28,0-0.49c1.18-0.21,1.21-0.25,1.21-1.48c0-0.54,0-1.08,0-1.68c3.01,0.6,5.43,2.06,7.12,4.56
	c2.49,3.68,2.71,7.56,0.75,11.56c-0.06,0.13-0.12,0.29-0.22,0.37c-0.14,0.12-0.33,0.18-0.5,0.26c-0.07-0.16-0.19-0.31-0.19-0.47
	c-0.02-1.4-0.01-2.8-0.01-4.2c0-0.95-0.19-1.15-1.12-1.16c-2.07,0-4.14,0-6.2,0c-0.93,0-1.13,0.22-1.13,1.15
	C32.57,35.27,32.57,36.81,32.57,38.37z"/>
<path d="M20.85,18.76c1.13,0.56,2.23,1.07,3.3,1.63c0.39,0.21,0.7,0.21,1.11,0.03c1.02-0.47,2.08-0.84,3.1-1.32
	c0.32-0.15,0.65-0.47,0.77-0.79c0.37-0.97,0.66-1.97,0.94-2.98c0.11-0.4,0.31-0.51,0.7-0.5c0.92,0.02,1.84,0.01,2.76-0.01
	c0.32-0.01,0.48,0.09,0.57,0.42c0.3,1.02,0.66,2.02,0.95,3.04c0.13,0.46,0.42,0.67,0.84,0.82c1.03,0.39,2.06,0.79,3.06,1.25
	c0.44,0.2,0.81,0.23,1.24,0c0.91-0.5,1.84-0.99,2.77-1.45c0.16-0.08,0.47-0.08,0.58,0.03c0.81,0.78,1.59,1.6,2.41,2.43
	c-0.53,1.02-1.05,2.06-1.61,3.09c-0.25,0.45-0.22,0.82,0,1.29c0.47,0.97,0.89,1.97,1.25,2.99c0.17,0.49,0.43,0.77,0.91,0.91
	c1.12,0.33,2.23,0.69,3.38,1.04c0,1.14,0.01,2.27-0.02,3.39c0,0.16-0.21,0.39-0.37,0.44c-1,0.35-2.01,0.68-3.04,0.97
	c-0.49,0.14-0.72,0.42-0.85,0.89c-0.13,0.48-0.34,0.94-0.47,1.42c-0.13,0.48-0.39,0.7-0.9,0.62c-0.26-0.04-0.54-0.01-0.81-0.01
	c2.58-6.54,1.45-12.12-4.34-16.29c-4.11-2.97-9.81-2.95-13.94,0.05c-5.74,4.17-6.8,9.74-4.26,16.24c-0.4,0-0.79,0.04-1.18-0.02
	c-0.15-0.02-0.35-0.21-0.41-0.36c-0.24-0.58-0.38-1.2-0.65-1.75c-0.14-0.29-0.45-0.6-0.75-0.71c-1.14-0.39-2.31-0.7-3.5-1.05
	c0-1.16-0.02-2.28,0.02-3.41c0-0.16,0.22-0.38,0.38-0.44c1.05-0.39,2.13-0.72,3.18-1.13c0.27-0.1,0.55-0.37,0.67-0.63
	c0.49-1.08,0.95-2.17,1.36-3.28c0.11-0.29,0.1-0.7-0.04-0.97c-0.47-0.97-1.04-1.9-1.53-2.87c-0.08-0.16-0.06-0.5,0.05-0.63
	C19.24,20.34,20.04,19.57,20.85,18.76z"/>
<path d="M13.47,8.08c-1.35-0.17-2.69-0.34-4.03-0.5C8.84,7.51,8.53,7.2,8.6,6.72c0.08-0.56,0.46-0.7,0.96-0.64
	c2.03,0.25,4.06,0.5,6.09,0.74c0.57,0.07,0.8,0.42,0.74,0.96c-0.24,2.05-0.49,4.1-0.76,6.15c-0.06,0.45-0.34,0.72-0.82,0.68
	c-0.52-0.04-0.73-0.38-0.68-0.87c0.14-1.31,0.3-2.61,0.46-3.92c0.02-0.14,0.03-0.29,0.06-0.51c-0.17,0.1-0.3,0.15-0.4,0.23
	c-5.67,4.62-9.27,10.5-10.39,17.73C2.29,37.42,5.32,46.1,12.78,53.14c4.32,4.07,9.52,6.46,15.43,7.27
	c4.63,0.63,9.16,0.19,13.56-1.38c0.12-0.04,0.23-0.09,0.35-0.12c0.49-0.12,0.9-0.03,1.06,0.49c0.15,0.49-0.12,0.83-0.58,0.95
	c-1.89,0.51-3.76,1.15-5.68,1.47c-5.49,0.91-10.89,0.38-16.03-1.78c-9.67-4.08-16.03-11.22-18.22-21.5c-2.54-12,1.17-22.1,10.5-30.1
	c0.08-0.07,0.16-0.13,0.23-0.21C13.44,8.22,13.44,8.17,13.47,8.08z"/>
<path d="M52.18,52.62c0.9-1.03,1.85-2.02,2.68-3.1c3.02-3.91,4.9-8.32,5.66-13.2c2.32-14.88-7.51-29.16-22.27-32.37
	c-4.65-1.01-9.28-0.86-13.88,0.39c-0.14,0.04-0.28,0.09-0.42,0.11c-0.44,0.07-0.8-0.04-0.92-0.52c-0.13-0.5,0.12-0.83,0.58-0.95
	c1.07-0.28,2.14-0.57,3.22-0.76C32.56,1.26,38.18,1.71,43.53,4c9.6,4.11,15.85,11.25,18.08,21.49c2.32,10.67-0.58,20.02-8.13,27.92
	c-0.1,0.11-0.2,0.21-0.3,0.32c-0.02,0.03-0.03,0.08-0.07,0.19c0.71,0.06,1.41,0.13,2.1,0.19c0.69,0.06,1.37,0.1,2.06,0.15
	c0.61,0.04,0.92,0.33,0.91,0.81c-0.02,0.49-0.36,0.75-0.97,0.71c-1.96-0.14-3.92-0.28-5.87-0.43c-0.77-0.06-1.01-0.31-0.95-1.08
	c0.14-1.98,0.28-3.96,0.47-5.93c0.03-0.3,0.32-0.7,0.59-0.82c0.51-0.22,0.95,0.25,0.91,0.92c-0.08,1.25-0.2,2.5-0.3,3.75
	c-0.01,0.12-0.02,0.23-0.02,0.35C52.09,52.55,52.14,52.58,52.18,52.62z"/>
<path d="M16.6,40.8c0.77-0.74,1.58-0.92,2.44-0.93c1.19-0.01,2.38,0,3.57,0c7.5,0,15,0,22.49,0c1.87,0,3.23,1,3.65,2.63
	c0.55,2.17-1.06,4.29-3.3,4.32c-2,0.03-4.01,0.01-6.02,0.01c-6.79,0-13.58,0-20.36,0c-0.87,0-1.67-0.2-2.47-0.9c0.4,0,0.64,0,0.88,0
	c1.65,0,3.3,0.02,4.95,0c1.38-0.02,2.47-1,2.62-2.31c0.14-1.24-0.66-2.41-1.89-2.75c-0.26-0.07-0.54-0.08-0.8-0.08
	c-1.67-0.01-3.34,0-5.01,0C17.14,40.8,16.94,40.8,16.6,40.8z M28.25,40.8c-1.44,0-2.59,1.15-2.58,2.57
	c0.01,1.39,1.16,2.54,2.55,2.56c1.4,0.03,2.6-1.15,2.6-2.57C30.83,41.93,29.69,40.79,28.25,40.8z M34.02,40.8
	c-1.44,0-2.59,1.15-2.58,2.57c0.01,1.41,1.21,2.59,2.61,2.57c1.39-0.02,2.54-1.18,2.54-2.56C36.6,41.93,35.47,40.8,34.02,40.8z
	 M42.36,43.36c0.01-1.44-1.13-2.57-2.58-2.57c-1.41,0-2.55,1.12-2.57,2.52c-0.02,1.41,1.14,2.6,2.55,2.63
	C41.16,45.96,42.36,44.78,42.36,43.36z M45.56,40.8c-1.44,0-2.59,1.15-2.58,2.57c0.01,1.38,1.16,2.54,2.55,2.57
	c1.4,0.03,2.59-1.16,2.6-2.57C48.14,41.93,47,40.8,45.56,40.8z"/>
<path d="M19.91,49.14c0-0.27,0-0.5,0-0.77c8.14,0,16.27,0,24.45,0c0,0.25,0,0.49,0,0.77C36.22,49.14,28.1,49.14,19.91,49.14z"/>
<path d="M34.1,38.37c0-1.45,0-2.84,0-4.28c0.22-0.01,0.42-0.02,0.72-0.03c0,0.51-0.01,0.98,0,1.45c0.01,0.62,0.25,0.88,0.87,0.9
	c0.73,0.02,1.46,0.02,2.19,0c0.65-0.02,0.91-0.28,0.94-0.92c0.02-0.45,0-0.91,0-1.4c0.27,0,0.47,0,0.71,0c0,1.42,0,2.82,0,4.27
	C37.72,38.37,35.94,38.37,34.1,38.37z"/>
<path d="M24.78,38.37c0-1.44,0-2.84,0-4.28c0.24,0,0.44,0,0.73,0c0,0.49,0.01,0.96,0,1.43c-0.01,0.57,0.28,0.87,0.82,0.88
	c0.77,0.02,1.54,0.02,2.31,0c0.54-0.01,0.84-0.3,0.83-0.87c-0.01-0.47,0-0.95,0-1.45c0.28,0,0.48,0,0.72,0c0,1.43,0,2.84,0,4.28
	C28.39,38.37,26.61,38.37,24.78,38.37z"/>
<path d="M19.98,42.27c0,0.78,0,1.45,0,2.17c-1.33,0-2.73,0-4.12-0.01c-0.11,0-0.31-0.12-0.32-0.2c-0.03-0.57-0.03-1.15-0.01-1.73
	c0-0.08,0.2-0.22,0.3-0.22C17.23,42.27,18.62,42.27,19.98,42.27z"/>
<path d="M22.49,42.27c0.59,0,1.06,0.47,1.06,1.08c0,0.63-0.49,1.12-1.11,1.1c-0.59-0.02-1.04-0.51-1.03-1.11
	C21.42,42.73,21.89,42.26,22.49,42.27z"/>
<path d="M31.66,21.52c0.32,0,0.59,0,0.89,0c0,0.57,0,1.12,0,1.7c-0.3,0-0.58,0-0.89,0C31.66,22.65,31.66,22.12,31.66,21.52z"/>
<path d="M28,34.1c0,0.28,0,0.5,0,0.77c-0.33,0-0.65,0-1,0c0-0.25,0-0.49,0-0.77C27.33,34.1,27.63,34.1,28,34.1z"/>
<path d="M36.33,34.87c0-0.27,0-0.51,0-0.78c0.33,0,0.63,0,0.96,0c0,0.27,0,0.5,0,0.78C36.99,34.87,36.7,34.87,36.33,34.87z"/>
<path d="M29.32,43.38c-0.01,0.59-0.5,1.07-1.08,1.06c-0.61-0.01-1.08-0.52-1.06-1.15c0.03-0.6,0.51-1.05,1.11-1.02
	C28.89,42.3,29.33,42.77,29.32,43.38z"/>
<path d="M34,44.44c-0.59-0.01-1.05-0.5-1.05-1.1c0-0.63,0.5-1.1,1.12-1.07c0.6,0.03,1.03,0.51,1.02,1.12
	C35.07,43.99,34.59,44.46,34,44.44z"/>
<path d="M39.8,42.27c0.59,0,1.06,0.48,1.06,1.08c0,0.62-0.5,1.12-1.11,1.1c-0.59-0.02-1.04-0.51-1.03-1.11
	C38.73,42.73,39.2,42.26,39.8,42.27z"/>
<path d="M45.55,44.44c-0.58,0-1.06-0.49-1.06-1.08c0-0.63,0.49-1.11,1.11-1.09c0.6,0.02,1.04,0.5,1.03,1.11
	C46.62,43.97,46.14,44.45,45.55,44.44z"/>
</svg>
