<?xml version="1.0" encoding="utf-8"?>
<!-- Generator: Adobe Illustrator 28.0.0, SVG Export Plug-In . SVG Version: 6.00 Build 0)  -->
<svg version="1.1" id="Layer_1" xmlns="http://www.w3.org/2000/svg" xmlns:xlink="http://www.w3.org/1999/xlink" x="0px" y="0px"
	 viewBox="0 0 612 313.83" style="enable-background:new 0 0 612 313.83;" xml:space="preserve">
<style type="text/css">
	.st0{fill:none;stroke:#1B214F;stroke-width:4;stroke-miterlimit:10;}
	.st1{fill:none;stroke:#000000;stroke-miterlimit:10;}
	.st2{fill:#1B214F;}
	.st3{fill:#DCDBDB;}
	.st4{fill:none;stroke:#DCDBDB;stroke-width:3;stroke-miterlimit:10;}
	.st5{stroke:#DCDBDB;stroke-miterlimit:10;}
	.st6{fill:none;stroke:#DCDBDB;stroke-miterlimit:10;}
	.st7{stroke:#FFFFFF;stroke-miterlimit:10;}
	.st8{fill:#1B214F;stroke:#DCDBDB;stroke-miterlimit:10;}
</style>
<polyline class="st0" points="228.83,185.42 228.83,210.4 254.03,235.6 550.16,235.76 585.37,200.55 585.37,182.96 "/>
<polyline class="st0" points="304.68,185.71 304.68,200.83 323.1,219.25 547.23,218.62 565.02,200.83 565.02,179.94 "/>
<path class="st1" d="M299.99,185.71"/>
<polyline class="st0" points="74.05,114.59 178.1,114.59 198.78,132.93 198.46,172.46 "/>
<path class="st2" d="M74.45,133.42v42.64h14.92c2.99,0,5.13,0.58,6.4,1.73c1.27,1.15,1.91,2.66,1.91,4.52
	c0,1.82-0.64,3.31-1.91,4.46c-1.27,1.15-3.41,1.73-6.4,1.73H47.09c-2.99,0-5.13-0.58-6.4-1.73c-1.27-1.15-1.91-2.66-1.91-4.52
	c0-1.82,0.64-3.31,1.91-4.46c1.27-1.15,3.41-1.73,6.4-1.73h14.92v-30.21H52c-2.95,0-5.08-0.58-6.37-1.73
	c-1.29-1.15-1.94-2.66-1.94-4.52c0-1.82,0.64-3.31,1.91-4.46c1.27-1.15,3.41-1.73,6.4-1.73H74.45z"/>
<path class="st2" d="M133.89,133.91v4.24c2.29-1.96,4.82-3.44,7.59-4.42c2.76-0.98,5.76-1.47,9-1.47c7.45,0,13.35,2.31,17.69,6.94
	c3.44,3.68,5.16,8.52,5.16,14.49v23.4c2.66,0,4.63,0.58,5.9,1.75c1.27,1.17,1.9,2.69,1.9,4.58c0,1.84-0.65,3.35-1.93,4.52
	c-1.29,1.17-3.45,1.75-6.48,1.75h-11.36c-3.03,0-5.19-0.58-6.48-1.75c-1.29-1.17-1.94-2.69-1.94-4.58c0-1.84,0.64-3.35,1.9-4.52
	c1.27-1.17,3.23-1.75,5.9-1.75v-23.77c0-2.74-0.74-4.75-2.21-6.02c-1.93-1.64-4.81-2.46-8.66-2.46c-2.91,0-5.46,0.57-7.65,1.69
	c-2.19,1.13-4.96,3.51-8.32,7.15v23.4c3.23,0,5.32,0.31,6.27,0.92c2.01,1.23,3.01,3.03,3.01,5.4c0,1.84-0.64,3.35-1.93,4.52
	c-1.29,1.17-3.45,1.75-6.48,1.75h-14.31c-3.03,0-5.19-0.58-6.48-1.75c-1.29-1.17-1.93-2.69-1.93-4.58c0-2.29,0.98-4.07,2.95-5.34
	c0.98-0.62,3.09-0.92,6.33-0.92V146.5c-2.66,0-4.63-0.59-5.9-1.78c-1.27-1.19-1.9-2.7-1.9-4.54c0-1.84,0.65-3.35,1.94-4.51
	c1.29-1.17,3.45-1.75,6.48-1.75H133.89z"/>
<path class="st2" d="M325.51,151.64c0-23.76,15.01-37.68,40.14-37.68c24.34,0,37.14,12.8,37.14,36.14v4.36h-54.53
	c0.79,13.22,6.48,19.4,17.23,19.4c9.01,0,13.91-3.94,15.65-10.26h21.34c-2.37,14.76-15.49,24.75-38.09,24.75
	C339.1,188.33,325.51,174.84,325.51,151.64z M380.67,142.92c-1.42-10.4-6.48-15.47-15.65-15.47c-9.17,0-14.54,4.92-16.28,15.47
	H380.67z"/>
<path class="st2" d="M506.98,168.06v-7.76v-25.36h-11.24v-12.42h11.24v-17.59h19.46v17.59h18.91v12.42h-18.91v24.19v5.82
	c0,6.6,3.56,9.7,10.83,9.7c3.15,0,6.03-0.52,8.5-1.03v14.23c-3.84,0.91-9.05,1.68-14.94,1.68
	C515.21,189.54,506.98,182.16,506.98,168.06z"/>
<path class="st2" d="M294.4,96.32c-0.23-0.01-0.4-0.02-0.57-0.02c-2.17,0-4.33-0.01-6.5,0c-0.7,0-1.26-0.22-1.57-0.84
	c-0.3-0.6-0.1-1.14,0.32-1.64c5.73-6.85,11.46-13.7,17.19-20.55c0.18-0.21,0.37-0.43,0.6-0.58c0.66-0.43,1.5-0.26,2.03,0.37
	c5.51,6.59,11.02,13.18,16.53,19.77c0.32,0.38,0.64,0.76,0.95,1.15c0.38,0.48,0.46,1,0.17,1.54c-0.29,0.55-0.79,0.78-1.41,0.78
	c-2.2,0-4.4,0-6.6,0c-0.19,0-0.37,0-0.62,0c0,0.22,0,0.38,0,0.54c0,12.8,0,25.61,0,38.41c0,1.14-0.51,1.63-1.72,1.63
	c-5.74,0-11.47,0-17.21,0c-0.98,0-1.58-0.56-1.6-1.49c0-0.14,0-0.27,0-0.41c0-12.56,0-25.12,0-37.68
	C294.4,96.99,294.4,96.69,294.4,96.32z"/>
<polyline class="st2" points="290.08,188.33 242.66,128.65 242.87,188.33 214.7,188.33 214.7,94.74 241.12,94.74 293.53,157.68 
	293.53,96.04 316.32,96.04 316.32,188.33 290.08,188.33 "/>
<path class="st3" d="M299.88,91.92c-0.11,0-0.19-0.01-0.27-0.01c-1.01,0-2.02,0-3.03,0c-0.33,0-0.59-0.1-0.73-0.39
	c-0.14-0.28-0.05-0.53,0.15-0.77c2.67-3.19,5.34-6.39,8.02-9.58c0.08-0.1,0.17-0.2,0.28-0.27c0.31-0.2,0.7-0.12,0.95,0.17
	c2.57,3.07,5.14,6.15,7.71,9.22c0.15,0.18,0.3,0.35,0.44,0.53c0.18,0.22,0.21,0.47,0.08,0.72c-0.14,0.25-0.37,0.36-0.66,0.36
	c-1.03,0-2.05,0-3.08,0c-0.09,0-0.17,0-0.29,0c0,0.1,0,0.18,0,0.25c0,5.97,0,11.94,0,17.91c0,0.53-0.24,0.76-0.8,0.76
	c-2.67,0-5.35,0-8.02,0c-0.46,0-0.74-0.26-0.75-0.7c0-0.06,0-0.13,0-0.19c0-5.86,0-11.71,0-17.57
	C299.88,92.23,299.88,92.09,299.88,91.92z"/>
<polygon class="st2" points="464.55,152.62 487.29,118.86 464.55,118.86 448.33,144.35 432,120.01 409.26,120.01 432,153.77 
	408.43,188.33 431.44,188.33 448.65,162.01 465.11,187.18 488.12,187.18 "/>
<path class="st4" d="M423.14,126.91l17.27,24.99c0.88,1.27,0.92,2.95,0.1,4.26l-17.37,27.88"/>
<line class="st5" x1="92.57" y1="182.05" x2="68.23" y2="182.05"/>
<polyline class="st6" points="46.94,139.19 68.23,139.19 68.23,182.05 46.94,182.05 "/>
<path class="st6" d="M156.43,182.05h9.98v-30.73c0,0-10.05-29.93-38.93,0"/>
<line class="st5" x1="177.31" y1="182.05" x2="166.41" y2="182.05"/>
<polyline class="st6" points="117.51,139.19 127.48,139.19 127.48,182.05 117.51,182.05 "/>
<line class="st7" x1="138.38" y1="182.05" x2="127.48" y2="182.05"/>
<circle class="st2" cx="585.37" cy="178.41" r="7.3"/>
<circle class="st2" cx="565.02" cy="178.41" r="7.3"/>
<circle class="st8" cx="304.68" cy="178.41" r="7.3"/>
<circle class="st2" cx="68.23" cy="114.59" r="7.3"/>
<circle class="st2" cx="198.21" cy="178.41" r="7.3"/>
<circle class="st8" cx="228.83" cy="178.41" r="7.3"/>
</svg>
